<svg width="65" height="72" viewBox="0 0 65 72" fill="none" xmlns="http://www.w3.org/2000/svg">
<path d="M16.5 0L18.3177 8.66452C19.9604 16.4954 25.5025 22.9377 33 25.732C25.5079 28.5242 19.9828 34.9791 18.38 42.8123L16.5 52L14.62 42.8123C13.0172 34.9791 7.49208 28.5242 0 25.732C7.49755 22.9377 13.0396 16.4954 14.6823 8.66452L16.5 0Z" fill="#FFC702"/>
<path d="M53.5 33L54.8755 40.0558C55.9545 45.5904 59.7665 50.2001 65 52.299C59.77 54.3965 55.9692 59.0143 54.9166 64.55L53.5 72L52.0834 64.55C51.0308 59.0143 47.23 54.3965 42 52.299C47.2335 50.2001 51.0455 45.5904 52.1245 40.0558L53.5 33Z" fill="#007CFA"/>
</svg>
