<svg width="177" height="50" viewBox="0 0 177 50" fill="none" xmlns="http://www.w3.org/2000/svg">
<path fill-rule="evenodd" clip-rule="evenodd" d="M31.7302 26.7529C32.8583 28.5784 34.1734 27.7038 34.7061 28.2021C35.2103 28.6742 38.4749 36.4005 38.9038 37.3655C38.0669 36.039 34.509 29.9193 33.7852 29.1568C32.4553 28.8895 31.5249 28.4528 30.8894 27.1814L31.7302 26.7529Z" fill="white"/>
<path fill-rule="evenodd" clip-rule="evenodd" d="M12.9986 42.6888C14.974 43.0898 16.5306 42.3758 17.4354 40.6012L17.6684 40.1641C18.0419 42.7693 15.0619 44.0488 12.699 43.788C12.3928 43.706 12.2118 43.3934 12.2945 43.0898C12.377 42.7862 12.6923 42.6068 12.9986 42.6888Z" fill="white"/>
<path fill-rule="evenodd" clip-rule="evenodd" d="M22.6431 45.2041C24.4508 44.557 25.2576 43.1426 24.9122 41.1267L24.8347 40.625C26.6929 42.724 25.0954 45.3548 23.0642 46.3208C22.7721 46.4037 22.4413 46.2208 22.3248 45.9125C22.2087 45.6038 22.3512 45.2869 22.6431 45.2041Z" fill="white"/>
<path fill-rule="evenodd" clip-rule="evenodd" d="M23.0325 4.625C10.3121 4.625 0 14.8497 0 27.4623C0 33.2066 2.13947 38.4551 5.67118 42.4686L9.05739 39.6054C7.52938 38.0238 6.59054 35.8786 6.59054 33.5156C6.59054 28.6529 10.5663 24.7109 15.4706 24.7109C19.1084 24.7109 22.2346 26.88 23.6071 29.9846L44.5482 19.299C41.2345 10.7182 32.8516 4.625 23.0325 4.625Z" fill="#007CFA"/>
<path fill-rule="evenodd" clip-rule="evenodd" d="M2.4281 37.3209C2.79446 39.2368 5.11689 42.1161 5.64759 42.7055C11.8609 49.6078 19.682 50.6149 25.8334 49.2047C31.7445 47.8493 35.7573 44.3457 36.8244 40.9704C37.2024 39.7746 37.2881 38.6178 37.1206 37.5884C36.2547 32.2764 29.646 32.4181 29.5405 37.7956C29.4961 40.0543 29.1068 42.6737 24.8736 44.1898C22.3638 45.0889 19.2979 45.4384 15.9922 44.1696C12.1322 42.6879 8.63431 40.1758 7.04156 37.401C1.90758 28.4589 3.538 33.4001 2.4281 37.3209Z" fill="#007CFA"/>
<path fill-rule="evenodd" clip-rule="evenodd" d="M17.2217 41.2488C18.8995 38.4358 15.5607 37.4117 14.3133 39.3392C13.0662 41.2668 8.19157 40.9551 7.10831 36.6487C7.01477 36.2773 6.94332 42.5356 12.8858 42.8836C14.416 42.9732 16.4634 42.5202 17.2217 41.2488Z" fill="#007CFA"/>
<path fill-rule="evenodd" clip-rule="evenodd" d="M41.4906 21.1127C37.9301 14.0561 32.2319 9.37748 24.0735 9.01423C21.1151 8.88263 18.1632 9.34592 15.4076 10.4275C12.793 11.4535 10.4189 13.0123 8.46473 15.0192C4.61083 18.9768 2.78056 24.2447 3.12461 29.7154C3.27098 32.0469 3.88807 34.8485 4.60931 37.0948C4.85052 37.8468 5.16708 38.6412 5.51936 39.4319C5.84696 40.1668 5.49489 40.4916 5.03413 39.7563C4.59156 39.0499 4.18882 38.3123 3.88786 37.6556C2.93212 35.5675 2.31741 33.2502 1.99999 31.0078C1.55828 27.8863 1.77004 24.7301 2.72015 21.7172C3.6053 18.9113 5.09649 16.3415 7.08764 14.1635C11.6784 9.14197 18.3817 6.71065 25.1587 7.24285C33.6466 7.90881 39.5846 12.8681 43.3748 20.2L43.3774 20.2048L43.38 20.2095C43.6292 20.7273 43.4081 21.3488 42.8859 21.5962C42.3639 21.8437 41.737 21.6243 41.4906 21.1127Z" fill="white"/>
<path fill-rule="evenodd" clip-rule="evenodd" d="M38.1975 21.7192C34.7636 14.7462 28.3623 10.8653 20.4902 11.7674C15.7286 12.3131 12.2205 14.2919 8.96528 17.7282L8.9603 17.7329L8.62404 18.076C8.16977 18.5388 7.68606 18.1101 7.95736 17.653C10.4632 13.4263 16.0999 10.779 20.8819 10.2597C29.2685 9.34897 36.1234 13.557 39.8818 20.907L39.884 20.9111L39.8861 20.9154C40.1089 21.3776 39.9112 21.9326 39.4449 22.1537C38.9795 22.3742 38.4233 22.1778 38.1975 21.7192Z" fill="white"/>
<path fill-rule="evenodd" clip-rule="evenodd" d="M21.7735 40.897C19.5353 43.2513 16.8091 44.3013 13.3367 42.9104C12.5702 42.6034 12.0596 42.2384 11.226 41.2843C11.0918 41.1306 12.1384 42.7839 13.9421 44.1755C16.2673 45.9692 20.9696 46.3087 23.4916 44.7709C23.9015 44.5207 24.2425 44.2395 24.5169 43.9424C25.2877 43.107 25.5326 42.1435 25.2996 41.3816C24.9018 40.0789 23.2288 39.3665 21.7735 40.897Z" fill="#007CFA"/>
<path fill-rule="evenodd" clip-rule="evenodd" d="M16.2152 39.7437C16.1063 40.8234 15.237 41.7744 13.9614 42.2983C15.3797 42.4026 16.8169 41.5155 17.2335 39.9988C17.2729 39.7128 17.077 39.4238 16.7957 39.3534C16.5145 39.2832 16.2544 39.4577 16.2152 39.7437Z" fill="white"/>
<path fill-rule="evenodd" clip-rule="evenodd" d="M22.2454 29.5144C20.8785 27.0755 19.0264 25.624 16.1654 25.2608C10.7983 24.5794 6.59835 29.351 6.89022 34.4788C6.93158 35.2042 7.09592 36.0187 7.22107 36.7332C6.70445 35.6746 6.61697 35.6913 6.42795 34.5284C5.44341 28.4665 10.9983 22.8089 17.3747 24.1448C20.3937 24.7771 22.1214 26.2722 23.66 28.8319L22.2454 29.5144Z" fill="white"/>
<path fill-rule="evenodd" clip-rule="evenodd" d="M23.4919 16.7002C24.3145 19.355 23.7938 18.8387 26.4715 19.6543C23.7938 20.4699 24.3145 19.9536 23.4919 22.6084C22.6696 19.9536 23.1903 20.4699 20.5126 19.6543C23.1903 18.8387 22.6696 19.3552 23.4919 16.7002Z" fill="white"/>
<path fill-rule="evenodd" clip-rule="evenodd" d="M27.6023 16.6797C27.894 17.6207 27.7093 17.4375 28.6583 17.7267C27.7093 18.0157 27.894 17.8326 27.6023 18.7735C27.3109 17.8326 27.4956 18.0157 26.5468 17.7267C27.4956 17.4375 27.3109 17.6207 27.6023 16.6797Z" fill="white"/>
<path fill-rule="evenodd" clip-rule="evenodd" d="M29.1144 19.9395C29.6319 21.6095 29.3043 21.2849 30.9886 21.7978C29.3043 22.3111 29.6317 21.9861 29.1144 23.6561C28.5969 21.9861 28.9247 22.3109 27.2402 21.7978C28.9247 21.2849 28.5969 21.6097 29.1144 19.9395Z" fill="white"/>
<path fill-rule="evenodd" clip-rule="evenodd" d="M32.6333 36.5201C30.5016 38.6713 31.9515 40.1694 28.4877 42.9004C31.1938 40.0354 29.7089 37.7896 31.5238 35.4145C31.8315 35.1107 32.3297 35.112 32.6361 35.4173C32.9429 35.7224 32.9416 36.2164 32.6333 36.5201Z" fill="white"/>
<path fill-rule="evenodd" clip-rule="evenodd" d="M23.7705 41.6423C23.9175 42.7176 23.2943 43.8426 22.1766 44.6457C23.5806 44.4207 24.7708 43.2273 24.8204 41.6558C24.792 41.3688 24.5339 41.133 24.2438 41.1289C23.9536 41.1253 23.7417 41.355 23.7705 41.6423Z" fill="white"/>
<path fill-rule="evenodd" clip-rule="evenodd" d="M36.4578 41.8868C34.652 45.6307 31.2309 47.8368 27.1139 49.0728C22.072 50.5865 16.3562 50.2915 11.7068 47.8529C9.79727 46.8514 7.41443 44.9991 6.12958 43.2395L7.10328 44.0755C11.5539 47.8658 16.5431 49.4407 22.3994 48.8173C27.4073 48.2842 32.7117 46.0079 34.9382 41.3777C35.6443 39.9095 37.132 40.4883 36.4578 41.8868Z" fill="white"/>
<path fill-rule="evenodd" clip-rule="evenodd" d="M35.092 24.333L43.6769 41.1619L41.3417 42.3293L32.7565 25.5011L35.092 24.333Z" fill="#FFC702"/>
<path fill-rule="evenodd" clip-rule="evenodd" d="M21.3334 29.468L45.1984 17.499L46.3763 19.8144L22.5115 31.7834L21.3334 29.468Z" fill="#FFC702"/>
<path fill-rule="evenodd" clip-rule="evenodd" d="M21.1774 29.0899L45.0426 17.1211L45.3817 17.8594L21.5164 29.8282L21.1774 29.0899Z" fill="white"/>
<path fill-rule="evenodd" clip-rule="evenodd" d="M42.0107 36.3287L47.0251 46.2878L43.3375 48.1482L38.3226 38.1894L38.3534 36.3969L40.7115 35.3271L42.0107 36.3287Z" fill="white"/>
<path fill-rule="evenodd" clip-rule="evenodd" d="M46.9107 46.0108L43.0395 47.8329C42.7545 47.9671 42.6318 48.3082 42.7669 48.5909C42.9024 48.8735 43.2465 48.9952 43.5316 48.861L47.4029 47.0388C47.688 46.9048 47.8106 46.5634 47.6752 46.2809C47.5399 45.998 47.1961 45.8764 46.9107 46.0108Z" fill="white"/>
<path fill-rule="evenodd" clip-rule="evenodd" d="M46.083 46.0518C46.1454 46.1815 46.0897 46.3363 45.9591 46.3981C45.8286 46.4597 45.6723 46.4046 45.6101 46.2753L41.271 37.2608L40.2226 36.5786C40.1015 36.5002 40.0675 36.3394 40.1466 36.2192C40.2258 36.0992 40.3882 36.0655 40.5095 36.1438L41.6127 36.862C41.6544 36.8873 41.6902 36.9246 41.7127 36.9721L46.083 46.0518Z" fill="white"/>
<path d="M22.3897 32.0137L46.4924 19.9414L46.2575 19.4803L22.1548 31.5526L22.3897 32.0137Z" fill="white"/>
<path fill-rule="evenodd" clip-rule="evenodd" d="M33.5351 25.1026C32.687 25.6157 31.2733 24.4598 31.2733 25.5171C31.2733 27.1312 32.5928 28.439 34.2202 28.439C35.8476 28.439 37.1673 27.1309 37.1673 25.5171C37.1673 24.6822 36.8142 23.9293 36.2479 23.3969C35.8134 22.9879 33.8621 24.9049 33.5351 25.1026Z" fill="#FFC702"/>
<path fill-rule="evenodd" clip-rule="evenodd" d="M35.3645 26.4954C36.3538 25.519 35.7436 24.4909 35.7469 23.5576C36.8581 24.546 36.9038 26.0276 36.037 27.1942L35.3645 26.4954Z" fill="white"/>
<path fill-rule="evenodd" clip-rule="evenodd" d="M32.8346 46.9436C34.307 46.9885 35.2523 47.5933 36.0164 48.1821C40.6704 51.7674 42.348 45.367 37.8159 45.0082C36.2396 44.8833 34.2782 45.6617 32.8346 46.9436Z" fill="#007CFA"/>
<path fill-rule="evenodd" clip-rule="evenodd" d="M38.9047 47.2832C38.4686 46.2982 37.1903 45.8057 36.1508 45.7153C37.5415 45.3188 38.9712 45.5023 39.8488 46.8302C39.975 47.0887 39.8657 47.3995 39.605 47.5247C39.3445 47.6498 39.031 47.5421 38.9047 47.2832Z" fill="white"/>
<path fill-rule="evenodd" clip-rule="evenodd" d="M40.1856 48.4275C39.6854 49.8103 38.0745 49.9367 36.9583 49.4256C35.4519 48.736 35.5191 47.6606 33.1252 46.9663C36.4196 46.6274 37.1553 50.5293 40.1856 48.4275Z" fill="white"/>
<path fill-rule="evenodd" clip-rule="evenodd" d="M35.0346 0.0214844C35.8572 2.6763 35.3362 2.15998 38.014 2.97557C35.3364 3.79117 35.8572 3.27484 35.0346 5.92966C34.212 3.27484 34.7328 3.79117 32.0552 2.97557C34.7328 2.15998 34.212 2.6763 35.0346 0.0214844Z" fill="#007CFA"/>
<path fill-rule="evenodd" clip-rule="evenodd" d="M39.1448 0C39.4363 0.940756 39.2516 0.757843 40.2004 1.04681C39.2516 1.33599 39.4363 1.15265 39.1448 2.09362C38.8532 1.15287 39.0379 1.33599 38.0889 1.04681C39.0379 0.758058 38.8534 0.940756 39.1448 0Z" fill="#007CFA"/>
<path fill-rule="evenodd" clip-rule="evenodd" d="M40.6569 3.26074C41.1746 4.93079 40.8468 4.60597 42.5313 5.11907C40.8468 5.63217 41.1744 5.30735 40.6569 6.97739C40.1394 5.30735 40.467 5.63195 38.7827 5.11907C40.467 4.60575 40.1394 4.93079 40.6569 3.26074Z" fill="#007CFA"/>
<path fill-rule="evenodd" clip-rule="evenodd" d="M19.8085 32.8936C20.6308 35.5484 20.1101 35.0323 22.7876 35.8479C20.1101 36.6632 20.6308 36.1469 19.8085 38.8019C18.9859 36.1471 19.5066 36.6632 16.8291 35.8479C19.5066 35.0323 18.9857 35.5486 19.8085 32.8936Z" fill="white"/>
<path fill-rule="evenodd" clip-rule="evenodd" d="M23.9185 32.8721C24.2102 33.813 24.0255 33.6299 24.9745 33.9189C24.0255 34.2081 24.2102 34.0249 23.9185 34.9659C23.6271 34.0249 23.8118 34.2081 22.8627 33.9189C23.8118 33.6301 23.6271 33.813 23.9185 32.8721Z" fill="white"/>
<path fill-rule="evenodd" clip-rule="evenodd" d="M25.4307 36.1328C25.9482 37.8029 25.6206 37.478 27.3049 37.9911C25.6206 38.5042 25.948 38.1792 25.4307 39.8495C24.9132 38.1792 25.2406 38.504 23.5563 37.9911C25.2406 37.4778 24.9134 37.8029 25.4307 36.1328Z" fill="white"/>
<path d="M53.6967 41.5755V17.3088H58.9302V28.3456L69.1867 17.3088H75.6496L66.447 27.1782L75.8253 41.5755H69.5731L62.8291 30.8218L58.9302 34.3592V41.5755H53.6967Z" fill="white"/>
<path d="M78.7269 41.5755V16H83.6093V41.5755H78.7269Z" fill="white"/>
<path d="M96.4861 42C94.4488 42 92.7394 41.658 91.3578 40.9741C89.9763 40.2667 88.9342 39.1936 88.2317 37.7551C87.5292 36.3166 87.178 34.4889 87.178 32.2721C87.178 30.0317 87.5292 28.2041 88.2317 26.7891C88.9342 25.3506 89.9646 24.2893 91.3227 23.6054C92.7043 22.898 94.3903 22.5442 96.3807 22.5442C98.254 22.5442 99.8346 22.8862 101.123 23.5701C102.41 24.2304 103.382 25.268 104.038 26.683C104.694 28.0744 105.021 29.8785 105.021 32.0952V33.3687H92.1306C92.1774 34.4535 92.3413 35.3732 92.6223 36.1279C92.9267 36.8825 93.3834 37.4485 93.9922 37.8258C94.6244 38.1796 95.4557 38.3565 96.4861 38.3565C97.048 38.3565 97.5515 38.2857 97.9964 38.1442C98.4648 38.0027 98.8628 37.7905 99.1907 37.5075C99.5185 37.2245 99.7761 36.8707 99.9634 36.4463C100.151 36.0218 100.244 35.5383 100.244 34.9959H105.021C105.021 36.1751 104.811 37.2009 104.389 38.0735C103.968 38.946 103.382 39.6771 102.633 40.2667C101.884 40.8327 100.982 41.2689 99.9283 41.5755C98.898 41.8585 97.7505 42 96.4861 42ZM92.2008 30.2558H99.9985C99.9985 29.5483 99.9049 28.9351 99.7175 28.4163C99.5536 27.8975 99.3195 27.473 99.015 27.1429C98.7106 26.8127 98.336 26.5769 97.891 26.4354C97.4696 26.2703 96.9895 26.1878 96.4509 26.1878C95.5611 26.1878 94.8118 26.341 94.2029 26.6476C93.6175 26.9306 93.1609 27.3787 92.8331 27.9918C92.5287 28.5814 92.3179 29.3361 92.2008 30.2558Z" fill="white"/>
<path d="M113.486 42C112.877 42 112.221 41.9293 111.519 41.7878C110.84 41.6463 110.196 41.3986 109.587 41.0449C108.978 40.6676 108.475 40.137 108.077 39.4531C107.702 38.7456 107.515 37.8494 107.515 36.7646C107.515 35.4676 107.796 34.3946 108.358 33.5456C108.92 32.6966 109.716 32.0363 110.746 31.5646C111.8 31.0694 113.053 30.7274 114.505 30.5388C115.956 30.3501 117.56 30.2558 119.317 30.2558V28.8762C119.317 28.3338 119.223 27.8621 119.036 27.4612C118.872 27.0603 118.567 26.7419 118.122 26.5061C117.701 26.2703 117.104 26.1524 116.331 26.1524C115.558 26.1524 114.926 26.2467 114.434 26.4354C113.966 26.624 113.626 26.8717 113.416 27.1782C113.228 27.4612 113.135 27.7796 113.135 28.1333V28.5578H108.393C108.369 28.4399 108.358 28.3338 108.358 28.2395C108.358 28.1215 108.358 27.98 108.358 27.815C108.358 26.7302 108.686 25.7986 109.341 25.0204C109.997 24.2186 110.922 23.6054 112.116 23.181C113.31 22.7565 114.704 22.5442 116.296 22.5442C118.005 22.5442 119.434 22.7683 120.581 23.2163C121.752 23.6644 122.642 24.3247 123.251 25.1973C123.883 26.0698 124.199 27.1664 124.199 28.4871V36.9415C124.199 37.366 124.316 37.6844 124.55 37.8966C124.808 38.0853 125.089 38.1796 125.393 38.1796H126.552V41.3986C126.318 41.5166 125.955 41.6345 125.463 41.7524C124.972 41.8939 124.375 41.9646 123.672 41.9646C122.993 41.9646 122.384 41.8585 121.846 41.6463C121.33 41.4576 120.897 41.1864 120.546 40.8327C120.195 40.4553 119.949 40.0073 119.808 39.4884H119.562C119.164 39.9837 118.673 40.42 118.087 40.7973C117.525 41.1746 116.858 41.4694 116.085 41.6816C115.336 41.8939 114.469 42 113.486 42ZM115.137 38.2857C115.792 38.2857 116.378 38.1914 116.893 38.0027C117.408 37.7905 117.841 37.5193 118.193 37.1891C118.544 36.8354 118.813 36.4109 119 35.9156C119.211 35.4204 119.317 34.8898 119.317 34.3238V33.298C118.005 33.298 116.834 33.3923 115.804 33.581C114.774 33.746 113.954 34.0408 113.345 34.4653C112.76 34.8898 112.467 35.4794 112.467 36.234C112.467 36.6585 112.573 37.024 112.783 37.3306C112.994 37.6372 113.299 37.873 113.697 38.0381C114.095 38.2032 114.575 38.2857 115.137 38.2857Z" fill="white"/>
<path d="M128.979 41.5755V22.9687H133.018L133.404 25.5156H133.65C134.072 24.9025 134.575 24.3719 135.161 23.9238C135.769 23.4757 136.449 23.1338 137.198 22.898C137.947 22.6621 138.767 22.5442 139.657 22.5442C140.874 22.5442 141.94 22.7683 142.853 23.2163C143.766 23.6644 144.469 24.3719 144.96 25.3388C145.476 26.3057 145.733 27.5673 145.733 29.1238V41.5755H140.851V29.902C140.851 29.3125 140.781 28.8172 140.64 28.4163C140.5 27.9918 140.289 27.6499 140.008 27.3905C139.75 27.1075 139.422 26.907 139.024 26.7891C138.626 26.6712 138.181 26.6122 137.69 26.6122C136.964 26.6122 136.308 26.7891 135.723 27.1429C135.137 27.4966 134.681 27.98 134.353 28.5932C134.025 29.2063 133.861 29.9138 133.861 30.7156V41.5755H128.979Z" fill="white"/>
<path d="M150.108 20.2449V16H154.991V20.2449H150.108ZM150.108 41.5755V22.9687H154.991V41.5755H150.108Z" fill="white"/>
<path d="M157.541 41.5755L164.25 31.9184L158.033 22.9687H163.898L167.411 28.5578H167.587L171.134 22.9687H176.649L170.397 31.883L177 41.5755H171.24L167.235 35.2435H167.06L163.055 41.5755H157.541Z" fill="white"/>
</svg>
