<svg width="213" height="60" viewBox="0 0 213 60" fill="none" xmlns="http://www.w3.org/2000/svg">
<path fill-rule="evenodd" clip-rule="evenodd" d="M38.1836 32.1035C39.5412 34.2941 41.1238 33.2445 41.7648 33.8425C42.3716 34.409 46.3001 43.6806 46.8163 44.8386C45.8092 43.2468 41.5277 35.9032 40.6566 34.9881C39.0563 34.6674 37.9366 34.1434 37.1719 32.6177L38.1836 32.1035Z" fill="#1F1F1F"/>
<path fill-rule="evenodd" clip-rule="evenodd" d="M15.641 51.2264C18.0181 51.7076 19.8913 50.8508 20.9802 48.7212L21.2605 48.1967C21.71 51.323 18.1239 52.8584 15.2804 52.5454C14.9119 52.447 14.6941 52.0719 14.7936 51.7076C14.8929 51.3433 15.2723 51.128 15.641 51.2264Z" fill="#1F1F1F"/>
<path fill-rule="evenodd" clip-rule="evenodd" d="M27.2481 54.245C29.4235 53.4685 30.3943 51.7713 29.9787 49.3522L29.8855 48.7502C32.1216 51.2689 30.1992 54.4259 27.7549 55.5852C27.4034 55.6846 27.0052 55.4651 26.865 55.0952C26.7254 54.7247 26.8968 54.3445 27.2481 54.245Z" fill="#1F1F1F"/>
<path fill-rule="evenodd" clip-rule="evenodd" d="M27.717 5.54944C12.4095 5.54944 0 17.819 0 32.9542C0 39.8474 2.57461 46.1455 6.82464 50.9618L10.8996 47.5259C9.06079 45.628 7.93099 43.0538 7.93099 40.2181C7.93099 34.383 12.7154 29.6525 18.6172 29.6525C22.9949 29.6525 26.7569 32.2555 28.4086 35.981L53.6088 23.1583C49.6212 12.8613 39.5333 5.54944 27.717 5.54944Z" fill="#007CFA"/>
<path fill-rule="evenodd" clip-rule="evenodd" d="M2.92188 44.7857C3.36275 47.0847 6.15754 50.5399 6.79617 51.2471C14.2733 59.53 23.685 60.7385 31.0876 59.0462C38.2009 57.4198 43.0299 53.2154 44.314 49.165C44.7689 47.73 44.8721 46.342 44.6704 45.1067C43.6284 38.7323 35.6756 38.9023 35.5487 45.3553C35.4953 48.0657 35.0268 51.209 29.9325 53.0283C26.9123 54.1073 23.2228 54.5267 19.2448 53.0041C14.5997 51.226 10.3904 48.2115 8.47367 44.8818C2.29548 34.1512 4.25752 40.0807 2.92188 44.7857Z" fill="#007CFA"/>
<path fill-rule="evenodd" clip-rule="evenodd" d="M20.7246 49.4987C22.7437 46.1231 18.7258 44.8942 17.2247 47.2071C15.7239 49.5204 9.85786 49.1463 8.55426 43.9786C8.4417 43.5329 8.35572 51.0429 15.5068 51.4605C17.3482 51.5679 19.8121 51.0244 20.7246 49.4987Z" fill="#007CFA"/>
<path fill-rule="evenodd" clip-rule="evenodd" d="M49.9289 25.3348C45.6442 16.8669 38.787 11.2525 28.9693 10.8166C25.4092 10.6587 21.857 11.2147 18.5408 12.5126C15.3945 13.7438 12.5375 15.6144 10.1859 18.0226C5.54813 22.7717 3.3456 29.0933 3.75964 35.658C3.93578 38.4558 4.67838 41.8178 5.54631 44.5133C5.83658 45.4158 6.21752 46.369 6.64145 47.3178C7.03568 48.1997 6.61201 48.5894 6.05753 47.7071C5.52495 46.8595 5.0403 45.9743 4.67812 45.1862C3.528 42.6806 2.78826 39.8998 2.40628 37.2089C1.87473 33.4631 2.12956 29.6757 3.27291 26.0602C4.33809 22.6931 6.13258 19.6093 8.52871 16.9958C14.0531 10.9699 22.1199 8.05234 30.2752 8.69099C40.4895 9.49014 47.6352 15.4412 52.1963 24.2396L52.1994 24.2453L52.2025 24.251C52.5025 24.8723 52.2364 25.6182 51.608 25.9149C50.9797 26.212 50.2254 25.9487 49.9289 25.3348Z" fill="white"/>
<path fill-rule="evenodd" clip-rule="evenodd" d="M45.9655 26.063C41.8332 17.6954 34.13 13.0384 24.6567 14.1209C18.9267 14.7758 14.7051 17.1503 10.7878 21.2738L10.7818 21.2795L10.3772 21.6912C9.83049 22.2466 9.2484 21.7321 9.57488 21.1837C12.5904 16.1116 19.3736 12.9348 25.1281 12.3116C35.2204 11.2188 43.4696 16.2684 47.9924 25.0885L47.995 25.0934L47.9976 25.0985C48.2657 25.6532 48.0279 26.3191 47.4666 26.5845C46.9067 26.8491 46.2373 26.6133 45.9655 26.063Z" fill="white"/>
<path fill-rule="evenodd" clip-rule="evenodd" d="M26.2027 49.0756C23.5093 51.9007 20.2286 53.1607 16.0499 51.4916C15.1275 51.1232 14.5131 50.6852 13.51 49.5403C13.3484 49.3559 14.608 51.3398 16.7785 53.0098C19.5766 55.1622 25.2353 55.5695 28.2703 53.7241C28.7635 53.424 29.1739 53.0865 29.504 52.73C30.4316 51.7276 30.7263 50.5713 30.446 49.657C29.9673 48.0938 27.954 47.239 26.2027 49.0756Z" fill="#007CFA"/>
<path fill-rule="evenodd" clip-rule="evenodd" d="M19.513 47.6923C19.3819 48.9879 18.3358 50.1292 16.8008 50.7578C18.5075 50.883 20.2371 49.8185 20.7384 47.9984C20.7858 47.6552 20.55 47.3084 20.2115 47.2239C19.8731 47.1397 19.5601 47.3492 19.513 47.6923Z" fill="white"/>
<path fill-rule="evenodd" clip-rule="evenodd" d="M26.7691 35.4171C25.1242 32.4905 22.8953 30.7487 19.4525 30.3128C12.9937 29.4951 7.93959 35.221 8.29083 41.3744C8.3406 42.2449 8.53836 43.2223 8.68897 44.0797C8.06727 42.8094 7.962 42.8294 7.73453 41.4339C6.54975 34.1596 13.2345 27.3705 20.9078 28.9737C24.5408 29.7324 26.6198 31.5265 28.4714 34.5981L26.7691 35.4171Z" fill="#1F1F1F"/>
<path fill-rule="evenodd" clip-rule="evenodd" d="M28.2709 20.0408C29.2608 23.2265 28.6341 22.607 31.8565 23.5857C28.6341 24.5644 29.2608 23.9448 28.2709 27.1306C27.2813 23.9448 27.9079 24.5644 24.6855 23.5857C27.9079 22.607 27.2813 23.2268 28.2709 20.0408Z" fill="white"/>
<path fill-rule="evenodd" clip-rule="evenodd" d="M33.2156 20.0159C33.5665 21.1451 33.3443 20.9253 34.4863 21.2724C33.3443 21.6191 33.5665 21.3994 33.2156 22.5285C32.8648 21.3994 33.0871 21.6191 31.9453 21.2724C33.0871 20.9253 32.8648 21.1451 33.2156 20.0159Z" fill="white"/>
<path fill-rule="evenodd" clip-rule="evenodd" d="M35.0367 23.9285C35.6594 25.9326 35.2652 25.5431 37.2921 26.1585C35.2652 26.7745 35.6592 26.3845 35.0367 28.3885C34.4139 26.3845 34.8084 26.7742 32.7812 26.1585C34.8084 25.5431 34.4139 25.9328 35.0367 23.9285Z" fill="white"/>
<path fill-rule="evenodd" clip-rule="evenodd" d="M39.27 43.8236C36.7047 46.405 38.4495 48.2027 34.2812 51.4799C37.5378 48.0419 35.7508 45.3469 37.9349 42.4968C38.3051 42.1323 38.9047 42.1338 39.2734 42.5002C39.6426 42.8663 39.641 43.4591 39.27 43.8236Z" fill="white"/>
<path fill-rule="evenodd" clip-rule="evenodd" d="M28.6055 49.9703C28.7824 51.2607 28.0325 52.6107 26.6875 53.5744C28.377 53.3044 29.8093 51.8723 29.869 49.9865C29.8348 49.6421 29.5242 49.3592 29.1751 49.3543C28.8259 49.3499 28.5708 49.6256 28.6055 49.9703Z" fill="white"/>
<path fill-rule="evenodd" clip-rule="evenodd" d="M43.8717 50.2644C41.6986 54.7571 37.5817 57.4045 32.6274 58.8876C26.5599 60.7041 19.6816 60.3501 14.0866 57.4238C11.7887 56.222 8.92118 53.9992 7.375 51.8877L8.54675 52.8909C13.9026 57.4392 19.9065 59.3292 26.9539 58.581C32.9804 57.9413 39.3637 55.2097 42.043 49.6536C42.8927 47.8917 44.6831 48.5862 43.8717 50.2644Z" fill="#1F1F1F"/>
<path fill-rule="evenodd" clip-rule="evenodd" d="M42.2284 29.199L52.5594 49.3936L49.7493 50.7946L39.418 30.6008L42.2284 29.199Z" fill="#FFC702"/>
<path fill-rule="evenodd" clip-rule="evenodd" d="M25.6719 35.3619L54.3908 20.9991L55.8082 23.7776L27.0896 38.1404L25.6719 35.3619Z" fill="#FFC702"/>
<path fill-rule="evenodd" clip-rule="evenodd" d="M25.4844 34.9078L54.2035 20.5453L54.6116 21.4313L25.8924 35.7938L25.4844 34.9078Z" fill="white"/>
<path fill-rule="evenodd" clip-rule="evenodd" d="M50.5553 43.5947L56.5897 55.5456L52.1521 57.7782L46.1172 45.8275L46.1542 43.6766L48.992 42.3929L50.5553 43.5947Z" fill="#1F1F1F"/>
<path fill-rule="evenodd" clip-rule="evenodd" d="M56.4512 55.2132L51.7926 57.3996C51.4497 57.5606 51.302 57.97 51.4646 58.3093C51.6277 58.6483 52.0417 58.7944 52.3849 58.6334L57.0435 56.4467C57.3866 56.2859 57.5341 55.8763 57.3712 55.5372C57.2084 55.1977 56.7946 55.0519 56.4512 55.2132Z" fill="#1F1F1F"/>
<path fill-rule="evenodd" clip-rule="evenodd" d="M55.4549 55.2619C55.5299 55.4175 55.463 55.6033 55.3059 55.6775C55.1487 55.7514 54.9606 55.6852 54.8858 55.5301L49.6642 44.7127L48.4025 43.894C48.2569 43.8 48.216 43.607 48.3111 43.4627C48.4064 43.3187 48.6019 43.2783 48.7478 43.3723L50.0753 44.2341C50.1256 44.2645 50.1686 44.3093 50.1957 44.3662L55.4549 55.2619Z" fill="white"/>
<path d="M26.9442 38.4161L55.9492 23.9294L55.6665 23.3761L26.6615 37.8629L26.9442 38.4161Z" fill="#1F1F1F"/>
<path fill-rule="evenodd" clip-rule="evenodd" d="M40.3566 30.1234C39.336 30.7391 37.6348 29.3521 37.6348 30.6209C37.6348 32.5577 39.2226 34.1271 41.181 34.1271C43.1394 34.1271 44.7275 32.5574 44.7275 30.6209C44.7275 29.619 44.3026 28.7155 43.6212 28.0766C43.0982 27.5858 40.7501 29.8861 40.3566 30.1234Z" fill="#FFC702"/>
<path fill-rule="evenodd" clip-rule="evenodd" d="M42.5586 31.7949C43.7491 30.6232 43.0148 29.3895 43.0187 28.2696C44.3559 29.4557 44.4109 31.2336 43.3679 32.6335L42.5586 31.7949Z" fill="white"/>
<path fill-rule="evenodd" clip-rule="evenodd" d="M39.5137 56.3328C41.2855 56.3866 42.4231 57.1123 43.3426 57.819C48.9432 62.1213 50.962 54.4408 45.5082 54.0103C43.6113 53.8603 41.2508 54.7945 39.5137 56.3328Z" fill="#007CFA"/>
<path fill-rule="evenodd" clip-rule="evenodd" d="M46.818 56.7406C46.2932 55.5587 44.7549 54.9677 43.5039 54.8592C45.1775 54.3834 46.898 54.6037 47.954 56.1971C48.106 56.5072 47.9744 56.8803 47.6607 57.0305C47.3472 57.1807 46.9699 57.0513 46.818 56.7406Z" fill="white"/>
<path fill-rule="evenodd" clip-rule="evenodd" d="M48.3597 58.1134C47.7578 59.7728 45.8192 59.9245 44.476 59.3111C42.6633 58.4836 42.7441 57.1932 39.8633 56.36C43.8277 55.9532 44.7131 60.6356 48.3597 58.1134Z" fill="#1F1F1F"/>
<path fill-rule="evenodd" clip-rule="evenodd" d="M42.1595 0.0249023C43.1494 3.21068 42.5225 2.59109 45.7449 3.56981C42.5228 4.54852 43.1494 3.92893 42.1595 7.11471C41.1697 3.92893 41.7963 4.54852 38.5742 3.56981C41.7963 2.59109 41.1697 3.21068 42.1595 0.0249023Z" fill="#007CFA"/>
<path fill-rule="evenodd" clip-rule="evenodd" d="M47.1067 0C47.4574 1.12891 47.2352 0.909412 48.3769 1.25617C47.2352 1.60319 47.4574 1.38318 47.1067 2.51235C46.7557 1.38344 46.978 1.60319 45.8359 1.25617C46.978 0.90967 46.756 1.12891 47.1067 0Z" fill="#007CFA"/>
<path fill-rule="evenodd" clip-rule="evenodd" d="M48.9253 3.91302C49.5484 5.91708 49.1539 5.5273 51.181 6.14302C49.1539 6.75874 49.5481 6.36895 48.9253 8.37301C48.3026 6.36895 48.6968 6.75848 46.6699 6.14302C48.6968 5.52704 48.3026 5.91708 48.9253 3.91302Z" fill="#007CFA"/>
<path fill-rule="evenodd" clip-rule="evenodd" d="M23.8373 39.472C24.8269 42.6578 24.2002 42.0385 27.4224 43.0172C24.2002 43.9957 24.8269 43.3761 23.8373 46.5621C22.8474 43.3763 23.4741 43.9957 20.252 43.0172C23.4741 42.0385 22.8472 42.6581 23.8373 39.472Z" fill="white"/>
<path fill-rule="evenodd" clip-rule="evenodd" d="M28.7842 39.4471C29.1352 40.5762 28.9129 40.3565 30.0549 40.7033C28.9129 41.0503 29.1352 40.8305 28.7842 41.9597C28.4335 40.8305 28.6557 41.0503 27.5137 40.7033C28.6557 40.3568 28.4335 40.5762 28.7842 39.4471Z" fill="white"/>
<path fill-rule="evenodd" clip-rule="evenodd" d="M30.6033 43.3605C31.2261 45.3646 30.8319 44.9748 32.8588 45.5905C30.8319 46.2062 31.2258 45.8162 30.6033 47.8205C29.9806 45.8162 30.3746 46.206 28.3477 45.5905C30.3746 44.9745 29.9809 45.3646 30.6033 43.3605Z" fill="white"/>
<path d="M64.6172 49.8906V20.7706H70.9152V34.0147L83.2577 20.7706H91.0352L79.9608 32.6139L91.2465 49.8906H83.7227L75.6071 36.9861L70.9152 41.231V49.8906H64.6172Z" fill="#1F1F1F"/>
<path d="M94.7383 49.8906V19.2H100.614V49.8906H94.7383Z" fill="#1F1F1F"/>
<path d="M116.11 50.4C113.658 50.4 111.601 49.9897 109.938 49.169C108.276 48.32 107.022 47.0324 106.176 45.3061C105.331 43.5799 104.908 41.3867 104.908 38.7265C104.908 36.0381 105.331 33.8449 106.176 32.147C107.022 30.4207 108.262 29.1472 109.896 28.3265C111.559 27.4776 113.587 27.0531 115.983 27.0531C118.237 27.0531 120.139 27.4634 121.689 28.2841C123.239 29.0765 124.408 30.3216 125.197 32.0196C125.986 33.6893 126.381 35.8542 126.381 38.5143V40.0425H110.868C110.925 41.3442 111.122 42.4479 111.46 43.3535C111.826 44.2591 112.376 44.9382 113.108 45.391C113.869 45.8155 114.87 46.0278 116.11 46.0278C116.786 46.0278 117.392 45.9429 117.927 45.7731C118.491 45.6033 118.97 45.3486 119.364 45.009C119.759 44.6694 120.069 44.2449 120.294 43.7355C120.52 43.2261 120.632 42.646 120.632 41.9951H126.381C126.381 43.4101 126.127 44.6411 125.62 45.6882C125.113 46.7352 124.408 47.6125 123.507 48.32C122.605 48.9992 121.52 49.5227 120.252 49.8906C119.012 50.2302 117.631 50.4 116.11 50.4ZM110.953 36.3069H120.336C120.336 35.458 120.224 34.7222 119.998 34.0996C119.801 33.477 119.519 32.9676 119.153 32.5714C118.787 32.1753 118.336 31.8923 117.8 31.7225C117.293 31.5244 116.715 31.4253 116.067 31.4253C114.996 31.4253 114.095 31.6093 113.362 31.9772C112.658 32.3167 112.108 32.8544 111.714 33.5902C111.347 34.2977 111.094 35.2033 110.953 36.3069Z" fill="#1F1F1F"/>
<path d="M136.567 50.4C135.834 50.4 135.045 50.3151 134.2 50.1453C133.383 49.9755 132.608 49.6784 131.875 49.2539C131.142 48.8011 130.537 48.1644 130.058 47.3437C129.607 46.4947 129.381 45.4193 129.381 44.1176C129.381 42.5611 129.719 41.2735 130.396 40.2547C131.072 39.2359 132.03 38.4435 133.27 37.8776C134.538 37.2833 136.046 36.8729 137.793 36.6465C139.54 36.4201 141.47 36.3069 143.584 36.3069V34.6514C143.584 34.0006 143.471 33.4346 143.245 32.9535C143.048 32.4724 142.682 32.0904 142.146 31.8074C141.639 31.5244 140.921 31.3829 139.991 31.3829C139.061 31.3829 138.3 31.4961 137.708 31.7225C137.145 31.9489 136.736 32.246 136.482 32.6139C136.257 32.9535 136.144 33.3355 136.144 33.76V34.2694H130.438C130.41 34.1279 130.396 34.0006 130.396 33.8874C130.396 33.7459 130.396 33.5761 130.396 33.378C130.396 32.0762 130.79 30.9584 131.579 30.0245C132.368 29.0623 133.481 28.3265 134.918 27.8172C136.356 27.3078 138.032 27.0531 139.948 27.0531C142.006 27.0531 143.724 27.3219 145.105 27.8596C146.514 28.3973 147.585 29.1897 148.318 30.2367C149.079 31.2838 149.459 32.5997 149.459 34.1845V44.3298C149.459 44.8392 149.6 45.2212 149.882 45.4759C150.192 45.7023 150.53 45.8155 150.896 45.8155H152.291V49.6784C152.009 49.8199 151.572 49.9614 150.981 50.1029C150.389 50.2727 149.67 50.3576 148.825 50.3576C148.008 50.3576 147.275 50.2302 146.627 49.9755C146.007 49.7491 145.486 49.4237 145.063 48.9992C144.64 48.5464 144.344 48.0087 144.175 47.3861H143.879C143.4 47.9804 142.809 48.504 142.104 48.9567C141.428 49.4095 140.625 49.7633 139.695 50.018C138.793 50.2727 137.75 50.4 136.567 50.4ZM138.554 45.9429C139.343 45.9429 140.047 45.8297 140.667 45.6033C141.287 45.3486 141.808 45.0231 142.231 44.627C142.654 44.2025 142.978 43.6931 143.203 43.0988C143.457 42.5045 143.584 41.8678 143.584 41.1886V39.9576C142.006 39.9576 140.597 40.0708 139.357 40.2972C138.117 40.4953 137.131 40.849 136.398 41.3584C135.693 41.8678 135.341 42.5752 135.341 43.4808C135.341 43.9902 135.468 44.4289 135.722 44.7967C135.975 45.1646 136.342 45.4476 136.821 45.6457C137.3 45.8438 137.877 45.9429 138.554 45.9429Z" fill="#1F1F1F"/>
<path d="M155.211 49.8906V27.5625H160.072L160.537 30.6188H160.833C161.34 29.883 161.946 29.2463 162.65 28.7086C163.383 28.1709 164.2 27.7606 165.102 27.4776C166.003 27.1946 166.99 27.0531 168.061 27.0531C169.526 27.0531 170.808 27.3219 171.907 27.8596C173.006 28.3973 173.851 29.2463 174.443 30.4065C175.063 31.5668 175.373 33.0808 175.373 34.9486V49.8906H169.498V35.8825C169.498 35.175 169.413 34.5807 169.244 34.0996C169.075 33.5902 168.821 33.1799 168.483 32.8686C168.173 32.529 167.779 32.2884 167.3 32.147C166.821 32.0055 166.285 31.9347 165.693 31.9347C164.82 31.9347 164.031 32.147 163.326 32.5714C162.622 32.9959 162.072 33.5761 161.678 34.3118C161.283 35.0476 161.086 35.8966 161.086 36.8588V49.8906H155.211Z" fill="#1F1F1F"/>
<path d="M180.638 24.2939V19.2H186.514V24.2939H180.638ZM180.638 49.8906V27.5625H186.514V49.8906H180.638Z" fill="#1F1F1F"/>
<path d="M189.582 49.8906L197.656 38.3021L190.174 27.5625H197.233L201.46 34.2694H201.671L205.94 27.5625H212.577L205.053 38.2596L212.999 49.8906H206.067L201.248 42.2923H201.037L196.219 49.8906H189.582Z" fill="#1F1F1F"/>
</svg>
