<svg width="20" height="20" viewBox="0 0 20 20" fill="none" xmlns="http://www.w3.org/2000/svg">
<path fill-rule="evenodd" clip-rule="evenodd" d="M7.76637 0.998806C8.04775 0.68455 8.39224 0.433165 8.77735 0.26106C9.16247 0.0889557 9.57955 0 10.0014 0C10.4232 0 10.8403 0.0889557 11.2254 0.26106C11.6105 0.433165 11.955 0.68455 12.2364 0.998806L12.9364 1.78081C13.0364 1.89271 13.1603 1.98066 13.299 2.03814C13.4377 2.09561 13.5875 2.12113 13.7374 2.11281L14.7874 2.05481C15.2084 2.03168 15.6296 2.09758 16.0235 2.24821C16.4173 2.39883 16.775 2.6308 17.0732 2.92897C17.3714 3.22715 17.6033 3.58483 17.754 3.9787C17.9046 4.37256 17.9705 4.79376 17.9474 5.21481L17.8894 6.26481C17.8812 6.41451 17.9068 6.56414 17.9643 6.70262C18.0217 6.84109 18.1096 6.96488 18.2214 7.06481L19.0044 7.76481C19.3188 8.04619 19.5703 8.39074 19.7425 8.77595C19.9147 9.16116 20.0037 9.57836 20.0037 10.0003C20.0037 10.4223 19.9147 10.8395 19.7425 11.2247C19.5703 11.6099 19.3188 11.9544 19.0044 12.2358L18.2214 12.9358C18.1095 13.0358 18.0215 13.1598 17.964 13.2985C17.9066 13.4371 17.881 13.5869 17.8894 13.7368L17.9474 14.7868C17.9705 15.2079 17.9046 15.6291 17.754 16.0229C17.6033 16.4168 17.3714 16.7745 17.0732 17.0726C16.775 17.3708 16.4173 17.6028 16.0235 17.7534C15.6296 17.904 15.2084 17.9699 14.7874 17.9468L13.7374 17.8888C13.5877 17.8806 13.438 17.9062 13.2996 17.9637C13.1611 18.0212 13.0373 18.109 12.9374 18.2208L12.2374 19.0038C11.956 19.3182 11.6114 19.5698 11.2262 19.742C10.841 19.9142 10.4238 20.0032 10.0019 20.0032C9.57992 20.0032 9.16272 19.9142 8.77751 19.742C8.3923 19.5698 8.04775 19.3182 7.76637 19.0038L7.06636 18.2208C6.96633 18.1089 6.84238 18.0209 6.70372 17.9635C6.56506 17.906 6.41524 17.8805 6.26537 17.8888L5.21537 17.9468C4.79432 17.9699 4.37312 17.904 3.97926 17.7534C3.58539 17.6028 3.22771 17.3708 2.92953 17.0726C2.63136 16.7745 2.39939 16.4168 2.24876 16.0229C2.09814 15.6291 2.03224 15.2079 2.05537 14.7868L2.11337 13.7368C2.12154 13.5871 2.09594 13.4375 2.03847 13.299C1.98101 13.1605 1.89314 13.0367 1.78137 12.9368L0.999365 12.2368C0.684944 11.9554 0.433418 11.6109 0.261213 11.2257C0.0890088 10.8405 0 10.4233 0 10.0013C0 9.57936 0.0890088 9.16216 0.261213 8.77695C0.433418 8.39174 0.684944 8.04719 0.999365 7.76581L1.78137 7.06581C1.89327 6.96577 1.98122 6.84182 2.0387 6.70316C2.09617 6.5645 2.12169 6.41468 2.11337 6.26481L2.05537 5.21481C2.03224 4.79376 2.09814 4.37256 2.24876 3.9787C2.39939 3.58483 2.63136 3.22715 2.92953 2.92897C3.22771 2.6308 3.58539 2.39883 3.97926 2.24821C4.37312 2.09758 4.79432 2.03168 5.21537 2.05481L6.26537 2.11281C6.41507 2.12098 6.5647 2.09538 6.70318 2.03792C6.84165 1.98045 6.96544 1.89258 7.06537 1.78081L7.76537 0.998806H7.76637ZM13.7084 6.29381C13.8958 6.48133 14.0012 6.73564 14.0012 7.00081C14.0012 7.26597 13.8958 7.52028 13.7084 7.70781L7.70836 13.7078C7.51976 13.89 7.26716 13.9908 7.00496 13.9885C6.74277 13.9862 6.49195 13.881 6.30655 13.6956C6.12114 13.5102 6.01597 13.2594 6.01369 12.9972C6.01141 12.735 6.11221 12.4824 6.29437 12.2938L12.2944 6.29381C12.4819 6.10634 12.7362 6.00102 13.0014 6.00102C13.2665 6.00102 13.5208 6.10634 13.7084 6.29381ZM7.50137 6.00081C7.10354 6.00081 6.72201 6.15884 6.4407 6.44015C6.1594 6.72145 6.00137 7.10298 6.00137 7.50081V7.51081C6.00137 7.90863 6.1594 8.29016 6.4407 8.57147C6.72201 8.85277 7.10354 9.01081 7.50137 9.01081H7.51137C7.90919 9.01081 8.29072 8.85277 8.57203 8.57147C8.85333 8.29016 9.01137 7.90863 9.01137 7.51081V7.50081C9.01137 7.10298 8.85333 6.72145 8.57203 6.44015C8.29072 6.15884 7.90919 6.00081 7.51137 6.00081H7.50137ZM12.5014 11.0008C12.1035 11.0008 11.722 11.1588 11.4407 11.4401C11.1594 11.7215 11.0014 12.103 11.0014 12.5008V12.5108C11.0014 12.9086 11.1594 13.2902 11.4407 13.5715C11.722 13.8528 12.1035 14.0108 12.5014 14.0108H12.5114C12.9092 14.0108 13.2907 13.8528 13.572 13.5715C13.8533 13.2902 14.0114 12.9086 14.0114 12.5108V12.5008C14.0114 12.103 13.8533 11.7215 13.572 11.4401C13.2907 11.1588 12.9092 11.0008 12.5114 11.0008H12.5014Z" fill="#1F1F1F"/>
</svg>
